<svg width="16" height="16" viewBox="0 0 16 16" fill="none" xmlns="http://www.w3.org/2000/svg">
<path fill-rule="evenodd" clip-rule="evenodd" d="M7.99998 12.9231C10.7189 12.9231 12.9231 10.7189 12.9231 7.99998C12.9231 5.28104 10.7189 3.0769 7.99998 3.0769C5.28104 3.0769 3.0769 5.28104 3.0769 7.99998C3.0769 10.7189 5.28104 12.9231 7.99998 12.9231Z" fill="#0092E4"/>
<rect x="1.84619" y="1.84613" width="12.3077" height="12.3077" rx="6.15385" fill="#0092E4"/>
<path d="M6.77382 8.79382L10.4802 5.11567C10.6751 4.9222 10.9896 4.9222 11.1846 5.11567L11.6227 5.55045C11.8197 5.74601 11.8197 6.06468 11.6227 6.26025L6.77382 11.0722L4.3601 8.67685C4.16303 8.48129 4.16304 8.16262 4.3601 7.96705L4.79821 7.53228C4.99316 7.33881 5.30766 7.33881 5.50261 7.53228L6.77382 8.79382Z" fill="#0092E4"/>
<mask id="mask0" mask-type="alpha" maskUnits="userSpaceOnUse" x="4" y="4" width="8" height="8">
<path d="M6.77382 8.79382L10.4802 5.11567C10.6751 4.9222 10.9896 4.9222 11.1846 5.11567L11.6227 5.55045C11.8197 5.74601 11.8197 6.06468 11.6227 6.26025L6.77382 11.0722L4.3601 8.67685C4.16303 8.48129 4.16304 8.16262 4.3601 7.96705L4.79821 7.53228C4.99316 7.33881 5.30766 7.33881 5.50261 7.53228L6.77382 8.79382Z" fill="white"/>
</mask>
<g mask="url(#mask0)">
<rect x="1.86157" y="1.85876" width="12.2843" height="12.2843" fill="white"/>
</g>
</svg>
